name C:\Users\u0101727\Documents\MyRepositories\upper-imu-dc\Results\main_mocap_tracking\Case_13\FLX01_orientations_groundFrame.mot
datacolumns 13
datarows 25
range 2.01000000 2.25000000
endheader 
time	radius_imu_[0][0]	radius_imu_[0][1]	radius_imu_[0][2]	radius_imu_[1][0]	radius_imu_[1][1]	radius_imu_[1][2]	radius_imu_[2][0]	radius_imu_[2][1]	radius_imu_[2][2]	radius_imu_x	radius_imu_y	radius_imu_z	
          2.01000000	          0.52039091	         -0.83568413	         -0.17557147	         -0.46896805	         -0.45151039	          0.75908322	         -0.71362614	         -0.31268260	         -0.62687105	         -2.26108796	         -0.17648622	          1.01384368	
          2.02000000	          0.52773534	         -0.82969539	         -0.18193673	         -0.46603824	         -0.46190244	          0.75462209	         -0.71014349	         -0.31345127	         -0.63043201	         -2.26676921	         -0.18295570	          1.00428387	
          2.03000000	          0.53534170	         -0.82360433	         -0.18731033	         -0.46449617	         -0.47229274	          0.74912140	         -0.70544494	         -0.31403100	         -0.63539906	         -2.27424003	         -0.18842330	          0.99442206	
          2.04000000	          0.54325916	         -0.81741596	         -0.19157408	         -0.46442944	         -0.48268151	          0.74251185	         -0.69941031	         -0.31440372	         -0.64185319	         -2.28361115	         -0.19276569	          0.98422203	
          2.05000000	          0.55145876	         -0.81114500	         -0.19477432	         -0.46566457	         -0.49304659	          0.73488881	         -0.69213420	         -0.31456137	         -0.64961634	         -2.29468162	         -0.19602736	          0.97372070	
          2.06000000	          0.55984253	         -0.80481381	         -0.19710676	         -0.46782441	         -0.50334989	          0.72648415	         -0.68389814	         -0.31450537	         -0.65830821	         -2.30700233	         -0.19840591	          0.96301773	
          2.07000000	          0.56827304	         -0.79844819	         -0.19886238	         -0.47043608	         -0.51354747	          0.71760636	         -0.67509677	         -0.31424431	         -0.66745401	         -2.32000080	         -0.20019698	          0.95224658	
          2.08000000	          0.57660942	         -0.79207269	         -0.20035574	         -0.47304591	         -0.52359938	          0.70856986	         -0.66614498	         -0.31379060	         -0.67659909	         -2.33311781	         -0.20172101	          0.94154062	
          2.09000000	          0.58473378	         -0.78570739	         -0.20186707	         -0.47529551	         -0.53347577	          0.69964118	         -0.65740444	         -0.31315732	         -0.68538449	         -2.34590140	         -0.20326386	          0.93100910	
          2.10000000	          0.59255811	         -0.77936692	         -0.20362242	         -0.47693440	         -0.54315776	          0.69102332	         -0.64915981	         -0.31235693	         -0.69355943	         -2.35802617	         -0.20505645	          0.92073132	
          2.11000000	          0.60001449	         -0.77306138	         -0.20581231	         -0.47778193	         -0.55263446	          0.68287596	         -0.64164401	         -0.31140207	         -0.70094345	         -2.36925000	         -0.20729371	          0.91076585	
          2.12000000	          0.60704214	         -0.76679751	         -0.20861788	         -0.47768483	         -0.56189949	          0.67534151	         -0.63507247	         -0.31030716	         -0.70738421	         -2.37936392	         -0.21016153	          0.90116211	
          2.13000000	          0.61358726	         -0.76057848	         -0.21220523	         -0.47651736	         -0.57095067	          0.66854060	         -0.62963631	         -0.30908852	         -0.71275690	         -2.38819426	         -0.21383103	          0.89196057	
          2.14000000	          0.61962151	         -0.75440169	         -0.21667319	         -0.47423409	         -0.57979371	          0.66252644	         -0.62543681	         -0.30776182	         -0.71701566	         -2.39567202	         -0.21840541	          0.88317699	
          2.15000000	          0.62517241	         -0.74825531	         -0.22197624	         -0.47094513	         -0.58844804	          0.65722111	         -0.62239067	         -0.30633788	         -0.72026867	         -2.40193246	         -0.22384081	          0.87477671	
          2.16000000	          0.63035184	         -0.74211509	         -0.22786345	         -0.46696864	         -0.59695103	          0.65237241	         -0.62015873	         -0.30481907	         -0.72283365	         -2.40738659	         -0.22988284	          0.86665126	
          2.17000000	          0.63536701	         -0.73594353	         -0.23387153	         -0.46282304	         -0.60535747	          0.64756247	         -0.61814529	         -0.30319870	         -0.72523579	         -2.41271451	         -0.23605774	          0.85861043	
          2.18000000	          0.64050014	         -0.72969278	         -0.23939093	         -0.45914264	         -0.61373268	          0.64227737	         -0.61558720	         -0.30146417	         -0.72812894	         -2.41875953	         -0.24173849	          0.85040140	
          2.19000000	          0.64605428	         -0.72331145	         -0.24379174	         -0.45653355	         -0.62214043	          0.63601761	         -0.61171152	         -0.29960279	         -0.73215243	         -2.42634446	         -0.24627365	          0.84175663	
          2.20000000	          0.65228095	         -0.71675343	         -0.24656458	         -0.45542174	         -0.63062991	          0.62840827	         -0.60590478	         -0.29760787	         -0.73777297	         -2.43607554	         -0.24913378	          0.83245679	
          2.21000000	          0.65931901	         -0.70998548	         -0.24742488	         -0.45595314	         -0.63922652	          0.61927069	         -0.59783374	         -0.29548279	         -0.74517430	         -2.44820852	         -0.25002159	          0.82238290	
          2.22000000	          0.66716777	         -0.70299126	         -0.24635435	         -0.45797598	         -0.64792919	          0.60864256	         -0.58749057	         -0.29324232	         -0.75423058	         -2.46261525	         -0.24891687	          0.81153771	
          2.23000000	          0.67569866	         -0.69577111	         -0.24358546	         -0.46109466	         -0.65671363	          0.59675701	         -0.57517218	         -0.29091196	         -0.76455686	         -2.47883901	         -0.24606096	          0.80003284	
          2.24000000	          0.68469328	         -0.68833898	         -0.23955076	         -0.46476153	         -0.66553901	          0.58399876	         -0.56141948	         -0.28852605	         -0.77560356	         -2.49619959	         -0.24190311	          0.78805337	
          2.25000000	          0.69389020	         -0.68071806	         -0.23481761	         -0.46837373	         -0.67435530	          0.57085110	         -0.54693916	         -0.28612558	         -0.78675899	         -2.51390897	         -0.23703093	          0.77581599	
